<svg xmlns="http://www.w3.org/2000/svg" viewBox="0 0 36 36"><defs><style>.a{fill:#fff;}.b{fill:#7b7e83;}</style></defs><g transform="translate(-12 -12)"><circle class="a" cx="18" cy="18" r="18" transform="translate(12 12)"/><g transform="translate(21 21)"><path class="b" d="M16.8,12.2a1.216,1.216,0,0,0-1.2,1.2v2H2.6V2.4h2A1.216,1.216,0,0,0,5.8,1.2,1.309,1.309,0,0,0,4.5,0H1.2A1.29,1.29,0,0,0,0,1.2V16.7A1.309,1.309,0,0,0,1.2,18H16.7a1.216,1.216,0,0,0,1.2-1.2V13.6A1.2,1.2,0,0,0,16.8,12.2Z"/><path class="b" d="M16.8,0H10.6A1.337,1.337,0,0,0,9.2,1.2a1.29,1.29,0,0,0,1.2,1.2h3.2l-7,7.2a1.268,1.268,0,0,0,0,1.8,1.489,1.489,0,0,0,.9.4,1.222,1.222,0,0,0,.9-.4l7.1-7.1V7.5a1.216,1.216,0,0,0,1.2,1.2A1.3,1.3,0,0,0,18,7.5V1.2A1.29,1.29,0,0,0,16.8,0Z" transform="translate(23.225 12.8) rotate(180)"/></g></g></svg>