<svg xmlns="http://www.w3.org/2000/svg" viewBox="0 0 36 36"><defs><style>.a{fill:#fff;}.b{fill:rgba(40,40,46,0.65);}</style></defs><g transform="translate(-2904 -1212)"><g transform="translate(2904 1212)"><circle class="a" cx="18" cy="18" r="18"/></g><g transform="translate(2910 1218)"><path class="b" d="M4.25,9.5A1.25,1.25,0,0,1,3,8.25v-4A1.25,1.25,0,0,1,4.25,3h4a1.25,1.25,0,0,1,0,2.5H5.5V8.25A1.25,1.25,0,0,1,4.25,9.5Z"/><path class="b" d="M8.25,21h-4A1.25,1.25,0,0,1,3,19.75v-4a1.25,1.25,0,0,1,2.5,0V18.5H8.25a1.25,1.25,0,0,1,0,2.5Z"/><path class="b" d="M19.75,21h-4a1.25,1.25,0,1,1,0-2.5H18.5V15.75a1.25,1.25,0,0,1,2.5,0v4A1.25,1.25,0,0,1,19.75,21Z"/><path class="b" d="M19.75,9.5A1.25,1.25,0,0,1,18.5,8.25V5.5H15.75a1.25,1.25,0,0,1,0-2.5h4A1.25,1.25,0,0,1,21,4.25v4A1.25,1.25,0,0,1,19.75,9.5Z"/></g></g></svg>