<svg xmlns="http://www.w3.org/2000/svg" xmlns:xlink="http://www.w3.org/1999/xlink" viewBox="0 0 72 72"><defs><style>.a{fill:#fff;}.b{fill:none;}.c{fill:#7b7e83;}.d{filter:url(#a);}</style><filter id="a" x="0" y="0" width="72" height="72" filterUnits="userSpaceOnUse"><feOffset dy="6" input="SourceAlpha"/><feGaussianBlur stdDeviation="6" result="b"/><feFlood flood-opacity="0.239"/><feComposite operator="in" in2="b"/><feComposite in="SourceGraphic"/></filter></defs><g transform="translate(-16856 -15554)"><g transform="translate(16584 14835)"><g transform="translate(-2614 -481)"><g transform="translate(2904 1212)"><g class="d" transform="matrix(1, 0, 0, 1, -18, -12)"><circle class="a" cx="18" cy="18" r="18" transform="translate(18 12)"/></g></g></g></g><g transform="translate(16470 15170)"><g transform="translate(-96 174)"><g transform="translate(60 -26)"><g transform="translate(24 26)"><rect class="b" width="24" height="24" transform="translate(422 228)"/></g></g></g><g transform="translate(-218 174)"><g transform="translate(29)"><g transform="translate(93)"><g transform="translate(60 -26)"><g transform="translate(24 26)"><rect class="b" width="24" height="24" transform="translate(422 228)"/></g></g></g></g></g><g transform="translate(415 407)"><path class="c" d="M13,9a.945.945,0,0,0-1,1v2H2V2H4A.945.945,0,0,0,5,1,.945.945,0,0,0,4,0H1A.945.945,0,0,0,0,1V13a.945.945,0,0,0,1,1H13a.945.945,0,0,0,1-1V10A.945.945,0,0,0,13,9Z"/><path class="c" d="M13.9.6a1.205,1.205,0,0,0-.5-.5A.6.6,0,0,0,13,0H9A.945.945,0,0,0,8,1,.945.945,0,0,0,9,2h1.6L4.3,8.3a.967.967,0,0,0,0,1.4A.908.908,0,0,0,5,10a.908.908,0,0,0,.7-.3L12,3.4V5a1,1,0,0,0,2,0V1A.6.6,0,0,0,13.9.6Z"/></g></g></g></svg>